<svg width="195" height="53" viewBox="0 0 195 53" fill="none" xmlns="http://www.w3.org/2000/svg">
<path d="M58.496 1.648H68.792V3.88H60.824V9.424H67.808V11.632H60.824V19H58.496V1.648ZM73.7568 12.856C73.7568 13.64 73.9408 14.344 74.3088 14.968C74.6928 15.576 75.1968 16.056 75.8208 16.408C76.4448 16.76 77.1488 16.936 77.9328 16.936C78.7488 16.936 79.4768 16.76 80.1168 16.408C80.7568 16.056 81.2608 15.576 81.6288 14.968C81.9968 14.344 82.1808 13.64 82.1808 12.856V1.648H84.4608V12.928C84.4608 14.192 84.1648 15.296 83.5728 16.24C82.9968 17.184 82.2128 17.912 81.2208 18.424C80.2448 18.936 79.1488 19.192 77.9328 19.192C76.7168 19.192 75.6208 18.936 74.6448 18.424C73.6688 17.912 72.8928 17.184 72.3168 16.24C71.7408 15.296 71.4528 14.192 71.4528 12.928V1.648H73.7568V12.856ZM88.2635 1.648H90.5915V16.768H99.3995V19H88.2635V1.648ZM102.233 1.648H104.561V16.768H113.369V19H102.233V1.648ZM125.179 4.744C124.587 4.44 123.939 4.176 123.235 3.952C122.531 3.728 121.843 3.616 121.171 3.616C120.243 3.616 119.499 3.832 118.939 4.264C118.395 4.696 118.123 5.272 118.123 5.992C118.123 6.536 118.299 7 118.651 7.384C119.003 7.752 119.467 8.072 120.043 8.344C120.619 8.616 121.219 8.872 121.843 9.112C122.387 9.32 122.923 9.552 123.451 9.808C123.979 10.064 124.451 10.384 124.867 10.768C125.299 11.152 125.635 11.624 125.875 12.184C126.131 12.744 126.259 13.44 126.259 14.272C126.259 15.184 126.027 16.016 125.563 16.768C125.115 17.52 124.467 18.112 123.619 18.544C122.771 18.976 121.763 19.192 120.595 19.192C119.827 19.192 119.091 19.104 118.387 18.928C117.699 18.752 117.059 18.528 116.467 18.256C115.875 17.968 115.347 17.672 114.883 17.368L115.915 15.544C116.299 15.816 116.739 16.08 117.235 16.336C117.731 16.576 118.251 16.776 118.795 16.936C119.339 17.08 119.867 17.152 120.379 17.152C120.923 17.152 121.459 17.056 121.987 16.864C122.531 16.656 122.979 16.344 123.331 15.928C123.683 15.512 123.859 14.96 123.859 14.272C123.859 13.68 123.699 13.192 123.379 12.808C123.075 12.408 122.667 12.072 122.155 11.8C121.643 11.512 121.099 11.256 120.523 11.032C119.979 10.824 119.427 10.6 118.867 10.36C118.307 10.104 117.787 9.8 117.307 9.448C116.827 9.08 116.443 8.632 116.155 8.104C115.867 7.576 115.723 6.936 115.723 6.184C115.723 5.272 115.939 4.48 116.371 3.808C116.819 3.12 117.427 2.584 118.195 2.2C118.963 1.8 119.843 1.584 120.835 1.552C121.955 1.552 122.939 1.688 123.787 1.96C124.651 2.232 125.411 2.568 126.067 2.968L125.179 4.744ZM127.822 1.648H139.342V3.88H134.686V19H132.358V3.88H127.822V1.648ZM138.992 19L146.576 0.927999H146.72L154.28 19H151.616L145.952 4.576L147.608 3.496L141.272 19H138.992ZM143.432 12.424H149.888L150.656 14.44H142.76L143.432 12.424ZM168.395 17.704C168.107 17.896 167.715 18.112 167.219 18.352C166.723 18.592 166.139 18.792 165.467 18.952C164.811 19.112 164.091 19.192 163.307 19.192C161.963 19.176 160.747 18.936 159.659 18.472C158.587 18.008 157.675 17.376 156.923 16.576C156.171 15.776 155.587 14.856 155.171 13.816C154.771 12.76 154.571 11.64 154.571 10.456C154.571 9.16 154.779 7.968 155.195 6.88C155.627 5.776 156.227 4.824 156.995 4.024C157.763 3.208 158.667 2.576 159.707 2.128C160.763 1.68 161.915 1.456 163.163 1.456C164.203 1.456 165.147 1.6 165.995 1.888C166.843 2.16 167.571 2.488 168.179 2.872L167.243 5.032C166.763 4.712 166.179 4.408 165.491 4.12C164.819 3.832 164.067 3.688 163.235 3.688C162.387 3.688 161.587 3.856 160.835 4.192C160.083 4.528 159.419 5 158.843 5.608C158.267 6.216 157.811 6.928 157.475 7.744C157.155 8.544 156.995 9.408 156.995 10.336C156.995 11.28 157.139 12.16 157.427 12.976C157.731 13.776 158.155 14.472 158.699 15.064C159.259 15.656 159.931 16.12 160.715 16.456C161.499 16.792 162.379 16.96 163.355 16.96C164.235 16.96 165.019 16.824 165.707 16.552C166.395 16.28 166.963 15.976 167.411 15.64L168.395 17.704ZM173.707 8.632L173.635 9.496L173.947 9.064L181.051 1.648H184.051L176.875 9.088L184.459 19H181.507L175.171 10.576L173.707 11.992V19H171.355V1.648H173.707V8.632Z" fill="white"/>
<path d="M62.072 42.24C61.144 42.24 60.296 42.04 59.528 41.64C58.776 41.24 58.176 40.656 57.728 39.888C57.296 39.104 57.08 38.152 57.08 37.032C57.08 35.928 57.312 34.976 57.776 34.176C58.24 33.36 58.856 32.736 59.624 32.304C60.408 31.872 61.264 31.656 62.192 31.656C63.12 31.656 63.904 31.872 64.544 32.304C65.184 32.72 65.672 33.216 66.008 33.792L65.864 34.176L66.08 32.064H68.144V42H65.912V39.408L66.152 39.984C66.088 40.144 65.944 40.352 65.72 40.608C65.512 40.848 65.224 41.096 64.856 41.352C64.504 41.608 64.096 41.824 63.632 42C63.168 42.16 62.648 42.24 62.072 42.24ZM62.672 40.392C63.232 40.392 63.736 40.288 64.184 40.08C64.632 39.872 65 39.584 65.288 39.216C65.592 38.832 65.8 38.376 65.912 37.848V35.904C65.784 35.424 65.56 35.008 65.24 34.656C64.92 34.288 64.536 34.008 64.088 33.816C63.64 33.608 63.144 33.504 62.6 33.504C62.008 33.504 61.464 33.648 60.968 33.936C60.472 34.224 60.072 34.624 59.768 35.136C59.48 35.648 59.336 36.248 59.336 36.936C59.336 37.576 59.488 38.16 59.792 38.688C60.096 39.216 60.504 39.632 61.016 39.936C61.528 40.24 62.08 40.392 62.672 40.392ZM73.0385 32.064L73.2305 34.488L73.1345 34.104C73.4545 33.368 73.9745 32.784 74.6945 32.352C75.4145 31.904 76.2465 31.68 77.1905 31.68C78.1345 31.68 78.9025 31.96 79.4945 32.52C80.1025 33.064 80.4145 33.776 80.4305 34.656V42H78.1745V35.448C78.1585 34.904 77.9985 34.464 77.6945 34.128C77.4065 33.776 76.9505 33.6 76.3265 33.6C75.7505 33.6 75.2305 33.76 74.7665 34.08C74.3025 34.4 73.9345 34.84 73.6625 35.4C73.4065 35.96 73.2785 36.608 73.2785 37.344V42H71.0465V32.064H73.0385ZM87.4801 42.24C86.5521 42.24 85.7041 42.04 84.9361 41.64C84.1841 41.24 83.5841 40.656 83.1361 39.888C82.7041 39.104 82.4881 38.152 82.4881 37.032C82.4881 35.928 82.7201 34.976 83.1841 34.176C83.6481 33.36 84.2641 32.736 85.0321 32.304C85.8161 31.872 86.6721 31.656 87.6001 31.656C88.5281 31.656 89.3121 31.872 89.9521 32.304C90.5921 32.72 91.0801 33.216 91.4161 33.792L91.2721 34.176L91.4881 32.064H93.5521V42H91.3201V39.408L91.5601 39.984C91.4961 40.144 91.3521 40.352 91.1281 40.608C90.9201 40.848 90.6321 41.096 90.2641 41.352C89.9121 41.608 89.5041 41.824 89.0401 42C88.5761 42.16 88.0561 42.24 87.4801 42.24ZM88.0801 40.392C88.6401 40.392 89.1441 40.288 89.5921 40.08C90.0401 39.872 90.4081 39.584 90.6961 39.216C91.0001 38.832 91.2081 38.376 91.3201 37.848V35.904C91.1921 35.424 90.9681 35.008 90.6481 34.656C90.3281 34.288 89.9441 34.008 89.4961 33.816C89.0481 33.608 88.5521 33.504 88.0081 33.504C87.4161 33.504 86.8721 33.648 86.3761 33.936C85.8801 34.224 85.4801 34.624 85.1761 35.136C84.8881 35.648 84.7441 36.248 84.7441 36.936C84.7441 37.576 84.8961 38.16 85.2001 38.688C85.5041 39.216 85.9121 39.632 86.4241 39.936C86.9361 40.24 87.4881 40.392 88.0801 40.392ZM96.4546 23.424H98.6866V42H96.4546V23.424ZM102.428 46.776L108.98 32.064H111.044L104.636 46.776H102.428ZM104.876 42.072L100.1 32.064H102.62L106.628 40.944L104.876 42.072ZM113.448 27.696H115.68V32.112H118.416V33.864H115.68V42H113.448V33.864H111.624V32.112H113.448V27.696ZM120.153 32.064H122.385V42H120.153V32.064ZM119.985 28.464C119.985 28.112 120.121 27.816 120.393 27.576C120.681 27.336 120.993 27.216 121.329 27.216C121.665 27.216 121.961 27.336 122.217 27.576C122.489 27.816 122.625 28.112 122.625 28.464C122.625 28.832 122.489 29.136 122.217 29.376C121.961 29.6 121.665 29.712 121.329 29.712C120.993 29.712 120.681 29.592 120.393 29.352C120.121 29.112 119.985 28.816 119.985 28.464ZM133.35 41.088C132.902 41.44 132.366 41.72 131.742 41.928C131.118 42.136 130.494 42.24 129.87 42.24C128.782 42.24 127.83 42.024 127.014 41.592C126.198 41.16 125.558 40.56 125.094 39.792C124.646 39.008 124.422 38.088 124.422 37.032C124.422 35.976 124.662 35.056 125.142 34.272C125.638 33.488 126.278 32.888 127.062 32.472C127.862 32.04 128.718 31.824 129.63 31.824C130.43 31.824 131.142 31.936 131.766 32.16C132.406 32.384 132.95 32.688 133.398 33.072L132.294 34.512C132.006 34.288 131.654 34.088 131.238 33.912C130.822 33.736 130.35 33.648 129.822 33.648C129.246 33.648 128.71 33.8 128.214 34.104C127.734 34.392 127.35 34.792 127.062 35.304C126.79 35.816 126.654 36.392 126.654 37.032C126.654 37.64 126.798 38.208 127.086 38.736C127.374 39.248 127.774 39.656 128.286 39.96C128.798 40.248 129.382 40.392 130.038 40.392C130.47 40.392 130.862 40.328 131.214 40.2C131.582 40.072 131.91 39.896 132.198 39.672L133.35 41.088ZM138.056 42.192C137.352 42.192 136.664 42.072 135.992 41.832C135.336 41.576 134.792 41.2 134.36 40.704L135.296 39.408C135.712 39.808 136.136 40.112 136.568 40.32C137.016 40.512 137.456 40.608 137.888 40.608C138.208 40.608 138.504 40.568 138.776 40.488C139.048 40.408 139.264 40.28 139.424 40.104C139.6 39.912 139.688 39.656 139.688 39.336C139.688 38.984 139.568 38.704 139.328 38.496C139.104 38.288 138.808 38.12 138.44 37.992C138.088 37.864 137.712 37.744 137.312 37.632C136.496 37.36 135.872 36.984 135.44 36.504C135.008 36.024 134.792 35.44 134.792 34.752C134.792 34.224 134.92 33.736 135.176 33.288C135.448 32.824 135.84 32.448 136.352 32.16C136.88 31.872 137.528 31.728 138.296 31.728C138.984 31.728 139.6 31.816 140.144 31.992C140.688 32.152 141.2 32.424 141.68 32.808L140.792 34.2C140.504 33.896 140.16 33.672 139.76 33.528C139.36 33.384 139 33.304 138.68 33.288C138.408 33.272 138.144 33.312 137.888 33.408C137.648 33.504 137.448 33.64 137.288 33.816C137.128 33.992 137.048 34.2 137.048 34.44C137.048 34.776 137.16 35.048 137.384 35.256C137.608 35.464 137.896 35.632 138.248 35.76C138.616 35.872 138.976 35.992 139.328 36.12C139.824 36.264 140.264 36.456 140.648 36.696C141.032 36.936 141.336 37.232 141.56 37.584C141.8 37.936 141.92 38.376 141.92 38.904C141.92 39.496 141.776 40.048 141.488 40.56C141.216 41.056 140.792 41.456 140.216 41.76C139.656 42.048 138.936 42.192 138.056 42.192Z" fill="white"/>
<path d="M9.91109 3.01512C9.80981 3.02959 9.48426 3.08023 9.18765 3.12363C8.3557 3.23938 7.09692 3.58663 6.31561 3.91218C2.778 5.38799 0.600453 8.44813 0.0723437 12.6658C0.0289375 13.0564 0 16.1961 0 21.5279C0 30.4479 0.00723437 30.513 0.397891 32.0611C0.74514 33.4429 1.43241 34.9187 2.19925 35.9315C2.60437 36.4741 3.52314 37.3784 4.08742 37.798C5.42578 38.8036 6.66286 39.3389 8.64508 39.773L9.5132 39.9683L18.1149 39.99C25.5229 40.0117 26.8323 40.0045 27.5557 39.9032C30.218 39.5559 32.3738 38.5359 34.016 36.8575C34.6961 36.1558 34.9927 35.7724 35.4918 34.9259C36.4612 33.291 37.0328 31.0556 37.04 28.9286C37.04 28.0099 36.9894 27.7856 36.6927 27.4673C36.0127 26.7439 34.8407 26.8741 34.3633 27.735C34.2186 27.9882 34.1897 28.1835 34.139 29.095C33.893 33.5442 31.7878 36.1341 27.7438 36.9516C27.1361 37.0745 26.514 37.0818 18.52 37.0818C10.526 37.0818 9.90386 37.0745 9.29617 36.9516C5.64281 36.2137 3.54484 33.9855 3.00226 30.267C2.90098 29.5797 2.89375 28.4439 2.91545 21.13C2.93716 12.796 2.93716 12.7743 3.09631 12.0726C3.90656 8.52047 6.07687 6.51656 9.71576 5.98121C10.8443 5.80759 26.1957 5.80759 27.3242 5.98121C30.4422 6.43698 32.5981 8.09365 33.5603 10.7631C34.0522 12.116 34.0884 12.4415 34.139 16.0298C34.1897 19.5891 34.1752 19.4878 34.6309 19.9074C34.942 20.204 35.1446 20.2763 35.5931 20.2836C36.0995 20.2836 36.4685 20.1099 36.7796 19.7265L37.0038 19.4516V16.0804C37.0038 12.5645 36.9894 12.333 36.6638 11.038C36.1936 9.12093 35.3616 7.5583 34.1173 6.24888C32.8658 4.91776 31.1729 3.92665 29.3499 3.44194C27.6715 2.99342 28.3153 3.02235 18.8094 3.00788C14.013 2.99342 10.0124 3.00065 9.91109 3.01512Z" fill="white"/>
<path d="M18.0642 11.4649C17.7025 11.6023 17.4493 11.8338 17.2829 12.1955C17.1527 12.4704 17.1455 12.89 17.1455 21.5134C17.1455 31.4173 17.1165 30.7879 17.5868 31.2364C17.8978 31.5258 18.1438 31.6198 18.5996 31.6198C19.229 31.6198 19.8005 31.2075 19.9669 30.6215C20.0247 30.4334 20.0392 27.612 20.0247 21.3325L20.003 12.3185L19.786 12.0074C19.4098 11.4721 18.6719 11.2406 18.0642 11.4649Z" fill="white"/>
<path d="M9.9111 17.0932C9.70853 17.209 9.51321 17.3898 9.39022 17.5924L9.18766 17.9107V24.2914C9.18042 30.4623 9.18766 30.6794 9.32511 30.947C9.57831 31.4462 10.0124 31.6922 10.6345 31.6922C11.3146 31.6922 11.8427 31.2726 12.0091 30.607C12.0597 30.3755 12.0814 28.4729 12.0669 24.1323L12.0452 17.983L11.8788 17.6792C11.5244 16.9992 10.5984 16.7315 9.9111 17.0932Z" fill="white"/>
<path d="M25.9786 23.2641C25.6314 23.3726 25.2986 23.6548 25.1177 23.9876C25.0092 24.1829 24.9948 24.5591 24.9948 27.3877C24.9948 30.4262 25.002 30.5853 25.1394 30.853C25.219 31.0121 25.4071 31.2364 25.559 31.3594C25.7905 31.5475 25.9135 31.5837 26.3259 31.6054C27.0204 31.6488 27.44 31.4245 27.7149 30.8747C27.8523 30.6215 27.8523 30.4406 27.8379 27.3226L27.8162 24.0382L27.5919 23.7633C27.194 23.2714 26.5646 23.0688 25.9786 23.2641Z" fill="white"/>
</svg>
